<svg width="263" height="150" viewBox="0 0 263 150" fill="none" xmlns="http://www.w3.org/2000/svg">
<path d="M9 1.5H253.5C257.642 1.5 261 4.85787 261 9V141C261 145.142 257.642 148.5 253.5 148.5H9C4.85786 148.5 1.5 145.142 1.5 141V9C1.5 4.85786 4.85786 1.5 9 1.5Z" fill="#EEEFFC"/>
<path d="M9 1.5H253.5C257.642 1.5 261 4.85787 261 9V141C261 145.142 257.642 148.5 253.5 148.5H9C4.85786 148.5 1.5 145.142 1.5 141V9C1.5 4.85786 4.85786 1.5 9 1.5Z" stroke="#1659E6" stroke-width="3"/>
<path d="M24 19.5C24 16.1863 26.6863 13.5 30 13.5H232.5C235.814 13.5 238.5 16.1863 238.5 19.5V130.5C238.5 133.814 235.814 136.5 232.5 136.5H30C26.6863 136.5 24 133.814 24 130.5V19.5Z" fill="white"/>
<path d="M30 25.5C30 22.1863 32.6863 19.5 36 19.5H129.75C133.064 19.5 135.75 22.1863 135.75 25.5V124.5C135.75 127.814 133.064 130.5 129.75 130.5H36C32.6863 130.5 30 127.814 30 124.5V25.5Z" fill="#F9FAFB"/>
<path d="M147.75 54C147.75 50.6863 150.436 48 153.75 48H226.5C229.814 48 232.5 50.6863 232.5 54V96.75C232.5 100.064 229.814 102.75 226.5 102.75H153.75C150.436 102.75 147.75 100.064 147.75 96.75V54Z" fill="#F9FAFB"/>
<path d="M153 58.125C153 55.8468 154.847 54 157.125 54H223.125C225.403 54 227.25 55.8468 227.25 58.125C227.25 60.4032 225.403 62.25 223.125 62.25H157.125C154.847 62.25 153 60.4032 153 58.125Z" fill="#EBEBEB"/>
<path d="M153 75.375C153 73.0968 154.847 71.25 157.125 71.25H223.125C225.403 71.25 227.25 73.0968 227.25 75.375C227.25 77.6532 225.403 79.5 223.125 79.5H157.125C154.847 79.5 153 77.6532 153 75.375Z" fill="#EBEBEB"/>
<path d="M193.5 92.625C193.5 90.3468 195.347 88.5 197.625 88.5H223.125C225.403 88.5 227.25 90.3468 227.25 92.625C227.25 94.9032 225.403 96.75 223.125 96.75H197.625C195.347 96.75 193.5 94.9032 193.5 92.625Z" fill="#EBEBEB"/>
<path d="M241.25 119.5C235.74 119.5 231.25 123.99 231.25 129.5C231.25 135.01 235.74 139.5 241.25 139.5C246.76 139.5 251.25 135.01 251.25 129.5C251.25 123.99 246.76 119.5 241.25 119.5ZM246.03 127.2L240.36 132.87C240.22 133.01 240.03 133.09 239.83 133.09C239.63 133.09 239.44 133.01 239.3 132.87L236.47 130.04C236.18 129.75 236.18 129.27 236.47 128.98C236.76 128.69 237.24 128.69 237.53 128.98L239.83 131.28L244.97 126.14C245.26 125.85 245.74 125.85 246.03 126.14C246.32 126.43 246.32 126.9 246.03 127.2Z" fill="#232ED1"/>
</svg>
