<svg width="13" height="13" viewBox="0 0 13 13" fill="none" xmlns="http://www.w3.org/2000/svg">
<g id="vuesax/bold/align-left">
<g id="align-left">
<path id="vector" d="M9.29688 7.3457C9.64914 7.34576 9.82927 7.42139 9.92969 7.52734C10.0333 7.63671 10.1064 7.83516 10.1064 8.21094V8.73047C10.1064 9.10625 10.0333 9.3047 9.92969 9.41406C9.82927 9.52002 9.64914 9.59564 9.29688 9.5957H3.60645V7.3457H9.29688Z" fill="#333333" stroke="#333333" stroke-width="0.5"/>
<path id="vector_2" d="M6.79688 3.0957C7.14616 3.09576 7.32741 3.17085 7.42871 3.27734C7.53297 3.38703 7.60645 3.58618 7.60645 3.96094V4.48047C7.60645 4.85523 7.53297 5.05437 7.42871 5.16406C7.32741 5.27056 7.14616 5.34564 6.79688 5.3457H3.60645V3.0957H6.79688Z" fill="#333333" stroke="#333333" stroke-width="0.5"/>
<path id="vector_3" d="M3.35655 11.2207C3.15155 11.2207 2.98155 11.0507 2.98155 10.8457V1.5957C2.97655 1.3857 3.14655 1.2207 3.35655 1.2207C3.56655 1.2207 3.73155 1.3907 3.73155 1.5957V10.8457C3.72655 11.0507 3.56155 11.2207 3.35655 11.2207Z" fill="#333333"/>
</g>
</g>
</svg>
