<svg width="12" height="13" viewBox="0 0 12 13" fill="none" xmlns="http://www.w3.org/2000/svg">
<g id="vuesax/bold/align-vertically">
<g id="align-vertically">
<path id="vector" d="M3.2998 7.3457H8.7002C9.04678 7.34573 9.22479 7.42068 9.32422 7.52637C9.42726 7.63592 9.5 7.83523 9.5 8.21094V8.73047C9.5 9.10617 9.42726 9.30549 9.32422 9.41504C9.22479 9.52073 9.04678 9.59568 8.7002 9.5957H3.2998C2.95322 9.59567 2.77521 9.52073 2.67578 9.41504C2.57274 9.30549 2.5 9.10617 2.5 8.73047V8.21094C2.5 7.83523 2.57274 7.63592 2.67578 7.52637C2.77521 7.42068 2.95322 7.34573 3.2998 7.3457Z" fill="#333333" stroke="#333333" stroke-width="0.5"/>
<path id="vector_2" d="M6 10.8457V9.2207" stroke="#333333" stroke-width="0.5"/>
<path id="vector_3" d="M6.375 9.8457V10.8457C6.375 11.0507 6.205 11.2207 6 11.2207C5.795 11.2207 5.625 11.0507 5.625 10.8457V9.8457H6.375Z" fill="#333333"/>
<path id="vector_4" d="M6.375 5.5957H5.625V7.0957H6.375V5.5957Z" fill="#333333"/>
<path id="vector_5" d="M6.375 1.5957V2.8457H5.625V1.5957C5.625 1.3907 5.795 1.2207 6 1.2207C6.205 1.2207 6.375 1.3907 6.375 1.5957Z" fill="#333333"/>
<path id="vector_6" d="M7.7 5.5957H4.3C3.55 5.5957 3.25 5.2757 3.25 4.4807V3.9607C3.25 3.1657 3.55 2.8457 4.3 2.8457H7.7C8.45 2.8457 8.75 3.1657 8.75 3.9607V4.4807C8.75 5.2757 8.45 5.5957 7.7 5.5957Z" fill="#333333"/>
</g>
</g>
</svg>
