<svg width="16" height="16" viewBox="0 0 16 16" fill="none" xmlns="http://www.w3.org/2000/svg">
<path d="M8.00049 1.83301C11.3975 1.83318 14.1665 4.60292 14.1665 8C14.1663 11.3969 11.3974 14.1658 8.00049 14.166C4.60341 14.166 1.83367 11.397 1.8335 8C1.8335 4.60281 4.6033 1.83301 8.00049 1.83301ZM10.5181 5.33789C10.1526 5.0403 9.62084 5.04022 9.25537 5.33789L9.18018 5.40625L8.00049 6.58594L6.8208 5.40625L6.74463 5.33789C6.3791 5.04033 5.84738 5.04019 5.48193 5.33789L5.40674 5.40625C5.04244 5.77055 5.01963 6.35259 5.33838 6.74414L5.40674 6.82031L6.58643 8L5.40674 9.17969C5.04247 9.54401 5.01959 10.126 5.33838 10.5176L5.40674 10.5928C5.60545 10.7915 5.86165 10.8867 6.11377 10.8867C6.33433 10.8867 6.55813 10.8143 6.74365 10.6631L6.8208 10.5928L8.00049 9.41309L9.18018 10.5928C9.37889 10.7915 9.63509 10.8867 9.88721 10.8867C10.1392 10.8866 10.3947 10.7914 10.5933 10.5928C10.9577 10.2284 10.9807 9.64644 10.6616 9.25488L10.5933 9.17969L9.41357 8L10.5933 6.82031C10.9577 6.45588 10.9807 5.873 10.6616 5.48145L10.5933 5.40625L10.5181 5.33789Z" fill="#808080" stroke="#808080"/>
</svg>
