<svg width="628" height="392" viewBox="0 0 628 392" fill="none" xmlns="http://www.w3.org/2000/svg">
<g opacity="0.02">
<rect x="245.476" y="307.162" width="43.6991" height="43.6991" fill="#1659E6"/>
<rect x="201.777" y="350.861" width="43.6991" height="43.6991" fill="#1659E6"/>
<rect x="289.176" y="350.861" width="43.6991" height="43.6991" fill="#1659E6"/>
<rect x="245.476" y="350.861" width="43.6991" height="43.6991" fill="#6C96EF"/>
<rect x="245.476" y="-41.3779" width="43.6991" height="43.6991" fill="#1659E6"/>
<rect x="201.777" y="2.32129" width="43.6991" height="43.6991" fill="#1659E6"/>
<rect x="289.176" y="2.32129" width="43.6991" height="43.6991" fill="#1659E6"/>
<rect x="245.476" y="45.4941" width="43.6991" height="43.6991" fill="#1659E6"/>
<rect x="245.476" y="2.32129" width="43.6991" height="43.6991" fill="#6C96EF"/>
<rect x="70.6802" y="307.162" width="43.6991" height="43.6991" fill="#1659E6"/>
<rect x="26.9814" y="350.861" width="43.6991" height="43.6991" fill="#1659E6"/>
<rect x="114.38" y="350.861" width="43.6991" height="43.6991" fill="#1659E6"/>
<rect x="70.6802" y="350.861" width="43.6991" height="43.6991" fill="#6C96EF"/>
<rect x="70.6812" y="-41.3779" width="43.6991" height="43.6991" fill="#1659E6"/>
<rect x="26.9814" y="2.32129" width="43.6991" height="43.6991" fill="#1659E6"/>
<rect x="114.38" y="2.32129" width="43.6991" height="43.6991" fill="#1659E6"/>
<rect x="70.6812" y="45.4941" width="43.6991" height="43.6991" fill="#1659E6"/>
<rect x="70.6812" y="2.32129" width="43.6991" height="43.6991" fill="#6C96EF"/>
<rect x="595.07" y="307.162" width="43.6991" height="43.6991" fill="#1659E6"/>
<rect x="551.372" y="350.861" width="43.6991" height="43.6991" fill="#1659E6"/>
<rect x="595.07" y="350.861" width="43.6991" height="43.6991" fill="#6C96EF"/>
<rect x="595.071" y="-41.3779" width="43.6991" height="43.6991" fill="#1659E6"/>
<rect x="551.372" y="2.32129" width="43.6991" height="43.6991" fill="#1659E6"/>
<rect x="595.071" y="45.4941" width="43.6991" height="43.6991" fill="#1659E6"/>
<rect x="595.071" y="2.32129" width="43.6991" height="43.6991" fill="#6C96EF"/>
<rect x="245.476" y="132.893" width="43.6991" height="43.6991" fill="#1659E6"/>
<rect x="201.777" y="176.592" width="43.6991" height="43.6991" fill="#1659E6"/>
<rect x="289.176" y="176.592" width="43.6991" height="43.6991" fill="#1659E6"/>
<rect x="245.476" y="219.765" width="43.6991" height="43.6991" fill="#1659E6"/>
<rect x="245.476" y="176.592" width="43.6991" height="43.6991" fill="#6C96EF"/>
<rect x="70.6807" y="132.893" width="43.6991" height="43.6991" fill="#1659E6"/>
<rect x="26.981" y="176.592" width="43.6991" height="43.6991" fill="#1659E6"/>
<rect x="114.379" y="176.592" width="43.6991" height="43.6991" fill="#1659E6"/>
<rect x="70.6807" y="219.765" width="43.6991" height="43.6991" fill="#1659E6"/>
<rect x="70.6807" y="176.592" width="43.6991" height="43.6991" fill="#6C96EF"/>
<rect x="595.07" y="132.893" width="43.6991" height="43.6991" fill="#1659E6"/>
<rect x="551.371" y="176.592" width="43.6991" height="43.6991" fill="#1659E6"/>
<rect x="595.07" y="219.765" width="43.6991" height="43.6991" fill="#1659E6"/>
<rect x="595.07" y="176.592" width="43.6991" height="43.6991" fill="#6C96EF"/>
<rect x="420.273" y="132.893" width="43.6991" height="43.6991" fill="#1659E6"/>
<rect x="376.575" y="176.592" width="43.6991" height="43.6991" fill="#1659E6"/>
<rect x="463.973" y="176.592" width="43.6991" height="43.6991" fill="#1659E6"/>
<rect x="420.273" y="219.765" width="43.6991" height="43.6991" fill="#1659E6"/>
<rect x="420.273" y="176.592" width="43.6991" height="43.6991" fill="#6C96EF"/>
<rect x="158.079" y="220.29" width="43.6991" height="43.6991" fill="#1659E6"/>
<rect x="114.379" y="263.989" width="43.6991" height="43.6991" fill="#1659E6"/>
<rect x="201.778" y="263.989" width="43.6991" height="43.6991" fill="#1659E6"/>
<rect x="158.079" y="307.162" width="43.6991" height="43.6991" fill="#1659E6"/>
<rect x="158.079" y="263.989" width="43.6991" height="43.6991" fill="#6C96EF"/>
<rect x="-16.7183" y="220.29" width="43.6991" height="43.6991" fill="#1659E6"/>
<rect x="26.9814" y="263.989" width="43.6991" height="43.6991" fill="#1659E6"/>
<rect x="-16.7183" y="307.162" width="43.6991" height="43.6991" fill="#1659E6"/>
<rect x="-16.7183" y="263.989" width="43.6991" height="43.6991" fill="#6C96EF"/>
<rect x="507.672" y="220.29" width="43.6991" height="43.6991" fill="#1659E6"/>
<rect x="463.973" y="263.989" width="43.6991" height="43.6991" fill="#1659E6"/>
<rect x="551.372" y="263.989" width="43.6991" height="43.6991" fill="#1659E6"/>
<rect x="507.672" y="307.162" width="43.6991" height="43.6991" fill="#1659E6"/>
<rect x="507.672" y="263.989" width="43.6991" height="43.6991" fill="#6C96EF"/>
<rect x="332.875" y="220.29" width="43.6991" height="43.6991" fill="#1659E6"/>
<rect x="289.176" y="263.989" width="43.6991" height="43.6991" fill="#1659E6"/>
<rect x="376.575" y="263.989" width="43.6991" height="43.6991" fill="#1659E6"/>
<rect x="332.875" y="307.162" width="43.6991" height="43.6991" fill="#1659E6"/>
<rect x="332.875" y="263.989" width="43.6991" height="43.6991" fill="#6C96EF"/>
<rect x="332.875" y="45.4941" width="43.6991" height="43.6991" fill="#1659E6"/>
<rect x="289.176" y="89.1943" width="43.6991" height="43.6991" fill="#1659E6"/>
<rect x="376.574" y="89.1943" width="43.6991" height="43.6991" fill="#1659E6"/>
<rect x="332.875" y="132.367" width="43.6991" height="43.6991" fill="#1659E6"/>
<rect x="332.875" y="89.1943" width="43.6991" height="43.6991" fill="#6C96EF"/>
<rect x="158.078" y="45.4941" width="43.6991" height="43.6991" fill="#1659E6"/>
<rect x="114.379" y="89.1943" width="43.6991" height="43.6991" fill="#1659E6"/>
<rect x="201.778" y="89.1943" width="43.6991" height="43.6991" fill="#1659E6"/>
<rect x="158.078" y="132.367" width="43.6991" height="43.6991" fill="#1659E6"/>
<rect x="158.078" y="89.1943" width="43.6991" height="43.6991" fill="#6C96EF"/>
<rect x="-16.7188" y="45.4941" width="43.6991" height="43.6991" fill="#1659E6"/>
<rect x="26.981" y="89.1934" width="43.6991" height="43.6991" fill="#1659E6"/>
<rect x="-16.7188" y="132.366" width="43.6991" height="43.6991" fill="#1659E6"/>
<rect x="-16.7188" y="89.1934" width="43.6991" height="43.6991" fill="#6C96EF"/>
<rect x="507.671" y="45.4941" width="43.6991" height="43.6991" fill="#1659E6"/>
<rect x="463.972" y="89.1934" width="43.6991" height="43.6991" fill="#1659E6"/>
<rect x="551.37" y="89.1934" width="43.6991" height="43.6991" fill="#1659E6"/>
<rect x="507.671" y="132.366" width="43.6991" height="43.6991" fill="#1659E6"/>
<rect x="507.671" y="89.1934" width="43.6991" height="43.6991" fill="#6C96EF"/>
<rect x="420.273" y="307.162" width="43.6991" height="43.6991" fill="#1659E6"/>
<rect x="376.575" y="350.861" width="43.6991" height="43.6991" fill="#1659E6"/>
<rect x="463.973" y="350.861" width="43.6991" height="43.6991" fill="#1659E6"/>
<rect x="420.273" y="350.861" width="43.6991" height="43.6991" fill="#6C96EF"/>
<rect x="420.273" y="-41.3779" width="43.6991" height="43.6991" fill="#1659E6"/>
<rect x="376.574" y="2.32129" width="43.6991" height="43.6991" fill="#1659E6"/>
<rect x="463.973" y="2.32129" width="43.6991" height="43.6991" fill="#1659E6"/>
<rect x="420.273" y="45.4941" width="43.6991" height="43.6991" fill="#1659E6"/>
<rect x="420.273" y="2.32129" width="43.6991" height="43.6991" fill="#6C96EF"/>
</g>
<g filter="url(#filter0_f_21142_147089)">
<circle cx="571.413" cy="345.831" r="65.3333" fill="#299CCA"/>
</g>
<g filter="url(#filter1_f_21142_147089)">
<circle cx="64.8626" cy="144.605" r="65.3333" fill="#1659E6"/>
</g>
<defs>
<filter id="filter0_f_21142_147089" x="201.191" y="-24.3908" width="740.444" height="740.445" filterUnits="userSpaceOnUse" color-interpolation-filters="sRGB">
<feFlood flood-opacity="0" result="BackgroundImageFix"/>
<feBlend mode="normal" in="SourceGraphic" in2="BackgroundImageFix" result="shape"/>
<feGaussianBlur stdDeviation="152.444" result="effect1_foregroundBlur_21142_147089"/>
</filter>
<filter id="filter1_f_21142_147089" x="-305.36" y="-225.617" width="740.444" height="740.445" filterUnits="userSpaceOnUse" color-interpolation-filters="sRGB">
<feFlood flood-opacity="0" result="BackgroundImageFix"/>
<feBlend mode="normal" in="SourceGraphic" in2="BackgroundImageFix" result="shape"/>
<feGaussianBlur stdDeviation="152.444" result="effect1_foregroundBlur_21142_147089"/>
</filter>
</defs>
</svg>
