<svg width="25" height="25" viewBox="0 0 25 25" fill="none" xmlns="http://www.w3.org/2000/svg">
<g id="vuesax/bold/tick-circle">
<g id="tick-circle">
<path id="vector" d="M12.75 2.5C7.24 2.5 2.75 6.99 2.75 12.5C2.75 18.01 7.24 22.5 12.75 22.5C18.26 22.5 22.75 18.01 22.75 12.5C22.75 6.99 18.26 2.5 12.75 2.5ZM17.53 10.2L11.86 15.87C11.72 16.01 11.53 16.09 11.33 16.09C11.13 16.09 10.94 16.01 10.8 15.87L7.97 13.04C7.68 12.75 7.68 12.27 7.97 11.98C8.26 11.69 8.74 11.69 9.03 11.98L11.33 14.28L16.47 9.14C16.76 8.85 17.24 8.85 17.53 9.14C17.82 9.43 17.82 9.9 17.53 10.2Z" fill="#232ED1"/>
</g>
</g>
</svg>
