<svg width="13" height="13" viewBox="0 0 13 13" fill="none" xmlns="http://www.w3.org/2000/svg">
<g id="vuesax/bold/align-right">
<g id="align-right">
<path id="vector" d="M3.70264 7.3457H9.39307V9.5957H3.70264C3.35038 9.59564 3.17024 9.52002 3.06982 9.41406C2.96618 9.3047 2.89307 9.10625 2.89307 8.73047V8.21094C2.89307 7.83516 2.96618 7.63671 3.06982 7.52734C3.17024 7.42139 3.35038 7.34576 3.70264 7.3457Z" fill="#333333" stroke="#333333" stroke-width="0.5"/>
<path id="vector_2" d="M6.20264 3.0957H9.39307V5.3457H6.20264C5.85335 5.34564 5.6721 5.27056 5.5708 5.16406C5.46655 5.05437 5.39307 4.85523 5.39307 4.48047V3.96094C5.39307 3.58618 5.46655 3.38703 5.5708 3.27734C5.6721 3.17085 5.85335 3.09576 6.20264 3.0957Z" fill="#333333" stroke="#333333" stroke-width="0.5"/>
<path id="vector_3" d="M9.64307 11.2207C9.43807 11.2207 9.26807 11.0507 9.26807 10.8457V1.5957C9.26807 1.3907 9.43807 1.2207 9.64307 1.2207C9.84807 1.2207 10.0181 1.3907 10.0181 1.5957V10.8457C10.0231 11.0507 9.85307 11.2207 9.64307 11.2207Z" fill="#333333"/>
</g>
</g>
</svg>
