<svg width="263" height="150" viewBox="0 0 263 150" fill="none" xmlns="http://www.w3.org/2000/svg">
<path d="M0.5 9C0.5 4.02944 4.52944 0 9.5 0H254C258.971 0 263 4.02944 263 9V141C263 145.971 258.971 150 254 150H9.5C4.52944 150 0.5 145.971 0.5 141V9Z" fill="#EEEFFC"/>
<path d="M24.5 19.5C24.5 16.1863 27.1863 13.5 30.5 13.5H233C236.314 13.5 239 16.1863 239 19.5V130.5C239 133.814 236.314 136.5 233 136.5H30.5C27.1863 136.5 24.5 133.814 24.5 130.5V19.5Z" fill="white"/>
<path d="M30.5 25.5C30.5 22.1863 33.1863 19.5 36.5 19.5H227C230.314 19.5 233 22.1863 233 25.5V124.5C233 127.814 230.314 130.5 227 130.5H36.5C33.1863 130.5 30.5 127.814 30.5 124.5V25.5Z" fill="#F9FAFB"/>
<path d="M89 53.25C89 49.9363 91.6863 47.25 95 47.25H167.75C171.064 47.25 173.75 49.9363 173.75 53.25V96C173.75 99.3137 171.064 102 167.75 102H95C91.6863 102 89 99.3137 89 96V53.25Z" fill="white"/>
<path d="M94.25 57.375C94.25 55.0968 96.0968 53.25 98.375 53.25H164.375C166.653 53.25 168.5 55.0968 168.5 57.375C168.5 59.6532 166.653 61.5 164.375 61.5H98.375C96.0968 61.5 94.25 59.6532 94.25 57.375Z" fill="#EBEBEB"/>
<path d="M94.25 74.625C94.25 72.3468 96.0968 70.5 98.375 70.5H164.375C166.653 70.5 168.5 72.3468 168.5 74.625C168.5 76.9032 166.653 78.75 164.375 78.75H98.375C96.0968 78.75 94.25 76.9032 94.25 74.625Z" fill="#EBEBEB"/>
<path d="M134.75 91.875C134.75 89.5968 136.597 87.75 138.875 87.75H164.375C166.653 87.75 168.5 89.5968 168.5 91.875C168.5 94.1532 166.653 96 164.375 96H138.875C136.597 96 134.75 94.1532 134.75 91.875Z" fill="#EBEBEB"/>
</svg>
