<svg width="16" height="17" viewBox="0 0 16 17" fill="none" xmlns="http://www.w3.org/2000/svg">
<path d="M7.11963 1.66699H8.8667C9.57737 1.66701 9.8939 1.87311 10.0571 2.07812C10.1934 2.24928 10.2576 2.45824 10.3032 2.68652L10.3442 2.9209V2.92285L10.4868 3.76074V4.05566L10.8013 4.07324C11.6081 4.11807 12.411 4.17417 13.2124 4.24414L14.0132 4.31934H14.0151C14.1085 4.3283 14.1778 4.40971 14.1733 4.50488C14.162 4.59079 14.0887 4.6543 14.0063 4.6543H13.9761C10.6552 4.32261 7.33632 4.18442 4.03467 4.45605L3.37354 4.51562L2.01416 4.64746C1.94099 4.65416 1.8798 4.61964 1.8501 4.56348L1.83154 4.50195C1.82495 4.43433 1.86062 4.37033 1.91943 4.33887L1.98486 4.31934H1.98584L3.34619 4.18555L3.34521 4.18457C3.95902 4.12517 4.57395 4.08693 5.19482 4.04688L5.45947 4.0293L5.50244 3.76758L5.64209 2.91504C5.69763 2.5783 5.75318 2.28614 5.93311 2.06445C6.09461 1.86569 6.4085 1.66705 7.11963 1.66699Z" fill="#E43A39" stroke="#E43A39" stroke-width="0.666667"/>
<path d="M3.78662 5.99902H12.2134C12.3479 5.99913 12.4804 6.05484 12.5776 6.15527C12.6693 6.25682 12.721 6.39383 12.7134 6.53906L12.3003 13.3691C12.2622 13.8985 12.2196 14.3667 11.9624 14.7188C11.7263 15.0419 11.2463 15.3388 10.1401 15.3389H5.85986C4.75397 15.3389 4.274 15.04 4.0376 14.7158C3.84444 14.4509 3.77211 14.1213 3.73193 13.751L3.69873 13.3682L3.28564 6.53223C3.28002 6.42832 3.3077 6.32427 3.36182 6.23535L3.42529 6.15137C3.51147 6.0579 3.6472 5.99902 3.78662 5.99902ZM6.88623 10.999C6.42885 10.9991 6.05322 11.3756 6.05322 11.833C6.0534 12.2903 6.42896 12.666 6.88623 12.666H9.10596C9.56328 12.666 9.93976 12.2903 9.93994 11.833C9.93994 11.3756 9.56339 10.999 9.10596 10.999H6.88623ZM6.33252 8.33301C5.87531 8.33327 5.49951 8.70875 5.49951 9.16602C5.49951 9.62328 5.87531 9.99876 6.33252 9.99902H9.6665C10.1239 9.99893 10.4995 9.62339 10.4995 9.16602C10.4995 8.70864 10.1239 8.3331 9.6665 8.33301H6.33252Z" fill="#E43A39" stroke="#E43A39" stroke-width="0.666667"/>
</svg>
