<svg xmlns="http://www.w3.org/2000/svg" width="143" height="101" viewBox="0 0 143 101" fill="none">
  <path d="M115.786 0.5H30.0716C26.1267 0.5 22.9287 3.69797 22.9287 7.64286V93.3571C22.9287 97.302 26.1267 100.5 30.0716 100.5H115.786C119.731 100.5 122.929 97.302 122.929 93.3571V7.64286C122.929 3.69797 119.731 0.5 115.786 0.5Z" fill="url(#paint0_linear_22590_52036)"/>
  <g filter="url(#filter0_d_22590_52036)">
    <path d="M104.357 7.64258H7.92815C5.9557 7.64258 4.35672 9.24156 4.35672 11.214V29.0711C4.35672 31.0436 5.9557 32.6426 7.92815 32.6426H104.357C106.329 32.6426 107.928 31.0436 107.928 29.0711V11.214C107.928 9.24156 106.329 7.64258 104.357 7.64258Z" fill="white"/>
  </g>
  <path d="M53.6426 13.3555H35.0711C33.8877 13.3555 32.9283 14.3149 32.9283 15.4983C32.9283 16.6818 33.8877 17.6412 35.0711 17.6412H53.6426C54.826 17.6412 55.7854 16.6818 55.7854 15.4983C55.7854 14.3149 54.826 13.3555 53.6426 13.3555Z" fill="#6C96EF"/>
  <path d="M66.4997 22.6406H35.0711C33.8877 22.6406 32.9283 23.6 32.9283 24.7835C32.9283 25.9669 33.8877 26.9263 35.0711 26.9263H66.4997C67.6832 26.9263 68.6426 25.9669 68.6426 24.7835C68.6426 23.6 67.6832 22.6406 66.4997 22.6406Z" fill="#C7D7F9"/>
  <path d="M23.643 9.78711H10.0716C8.09912 9.78711 6.50014 11.3861 6.50014 13.3585V26.93C6.50014 28.9024 8.09912 30.5014 10.0716 30.5014H23.643C25.6154 30.5014 27.2144 28.9024 27.2144 26.93V13.3585C27.2144 11.3861 25.6154 9.78711 23.643 9.78711Z" fill="#1659E6"/>
  <path d="M15.2299 22.4869H16.6585L16.6742 21.9369C16.6742 21.214 17.1299 21.0254 17.7742 20.8212C18.4205 20.6373 18.9894 20.248 19.3948 19.7122C19.8002 19.1764 20.0202 18.5231 20.0214 17.8512C20.0355 17.4409 19.9643 17.0322 19.8124 16.6509C19.6604 16.2695 19.4309 15.9239 19.1384 15.6359C18.846 15.3479 18.4969 15.1237 18.1133 14.9775C17.7297 14.8314 17.3199 14.7665 16.9099 14.7869C16.4767 14.7774 16.046 14.8561 15.644 15.0181C15.2421 15.1801 14.8772 15.422 14.5715 15.7293C14.2659 16.0365 14.0259 16.4027 13.866 16.8055C13.7061 17.2083 13.6297 17.6394 13.6414 18.0726H15.1185C15.1129 17.8334 15.1551 17.5955 15.2426 17.3728C15.3301 17.1501 15.4612 16.9471 15.6282 16.7758C15.7952 16.6044 15.9947 16.4681 16.215 16.3748C16.4354 16.2815 16.6721 16.2332 16.9114 16.2326C17.1271 16.2201 17.3431 16.2542 17.5445 16.3325C17.7459 16.4109 17.9281 16.5317 18.0787 16.6868C18.2293 16.8418 18.3447 17.0275 18.4171 17.2311C18.4896 17.4347 18.5173 17.6516 18.4985 17.8669C18.489 18.2154 18.3678 18.5516 18.1528 18.826C17.9378 19.1004 17.6403 19.2985 17.3042 19.3912L16.7857 19.5969C16.2779 19.7192 15.8347 20.0277 15.5437 20.4614C15.2526 20.895 15.1351 21.4221 15.2142 21.9383L15.2299 22.4869ZM15.9371 25.8826C16.077 25.8876 16.2164 25.8644 16.3472 25.8146C16.478 25.7647 16.5975 25.6891 16.6986 25.5923C16.7997 25.4955 16.8803 25.3794 16.9358 25.2509C16.9912 25.1223 17.0203 24.984 17.0214 24.844C17.0201 24.7042 16.9909 24.566 16.9353 24.4376C16.8798 24.3093 16.7991 24.1933 16.6981 24.0966C16.597 24 16.4776 23.9245 16.3469 23.8748C16.2162 23.825 16.0768 23.8019 15.9371 23.8069C15.7973 23.8019 15.658 23.825 15.5273 23.8748C15.3966 23.9245 15.2772 24 15.1761 24.0966C15.075 24.1933 14.9943 24.3093 14.9388 24.4376C14.8833 24.566 14.854 24.7042 14.8528 24.844C14.8539 24.984 14.883 25.1223 14.9384 25.2509C14.9938 25.3794 15.0745 25.4955 15.1756 25.5923C15.2767 25.6891 15.3961 25.7647 15.5269 25.8146C15.6577 25.8644 15.7972 25.8876 15.9371 25.8826Z" fill="white"/>
  <g filter="url(#filter1_d_22590_52036)">
    <path d="M38.6433 38.3574H135.072C136.019 38.3574 136.927 38.7337 137.597 39.4035C138.267 40.0732 138.643 40.9816 138.643 41.9289V59.786C138.643 60.7332 138.267 61.6416 137.597 62.3114C136.927 62.9811 136.019 63.3574 135.072 63.3574H38.6433C37.6961 63.3574 36.7877 62.9811 36.1179 62.3114C35.4481 61.6416 35.0718 60.7332 35.0718 59.786V41.9289C35.0718 40.9816 35.4481 40.0732 36.1179 39.4035C36.7877 38.7337 37.6961 38.3574 38.6433 38.3574V38.3574Z" fill="white"/>
  </g>
  <path d="M84.3577 44.0703H65.7863C64.6028 44.0703 63.6434 45.0297 63.6434 46.2132C63.6434 47.3966 64.6028 48.356 65.7863 48.356H84.3577C85.5412 48.356 86.5005 47.3966 86.5005 46.2132C86.5005 45.0297 85.5412 44.0703 84.3577 44.0703Z" fill="#6C96EF"/>
  <path d="M97.2148 53.3555H65.7863C64.6028 53.3555 63.6434 54.3149 63.6434 55.4983C63.6434 56.6818 64.6028 57.6412 65.7863 57.6412H97.2148C98.3983 57.6412 99.3577 56.6818 99.3577 55.4983C99.3577 54.3149 98.3983 53.3555 97.2148 53.3555Z" fill="#C7D7F9"/>
  <path d="M54.3578 40.5H40.7864C38.814 40.5 37.215 42.099 37.215 44.0714V57.6429C37.215 59.6153 38.814 61.2143 40.7864 61.2143H54.3578C56.3303 61.2143 57.9293 59.6153 57.9293 57.6429V44.0714C57.9293 42.099 56.3303 40.5 54.3578 40.5Z" fill="#1659E6"/>
  <path d="M45.9448 53.1998H47.3734L47.3891 52.6498C47.3891 51.9269 47.8448 51.7383 48.4891 51.534C49.1354 51.3502 49.7042 50.9609 50.1096 50.4251C50.5151 49.8893 50.735 49.236 50.7362 48.564C50.7504 48.1538 50.6792 47.7451 50.5272 47.3638C50.3752 46.9824 50.1457 46.6368 49.8533 46.3488C49.5608 46.0607 49.2117 45.8366 48.8281 45.6904C48.4445 45.5443 48.0348 45.4794 47.6248 45.4998C47.1915 45.4903 46.7608 45.569 46.3589 45.731C45.9569 45.893 45.592 46.1349 45.2864 46.4422C44.9807 46.7494 44.7407 47.1156 44.5808 47.5184C44.4209 47.9212 44.3445 48.3523 44.3562 48.7855H45.8334C45.8277 48.5463 45.8699 48.3084 45.9575 48.0857C46.045 47.863 46.1761 47.66 46.3431 47.4887C46.51 47.3173 46.7095 47.181 46.9299 47.0877C47.1502 46.9944 47.3869 46.9461 47.6262 46.9455C47.842 46.933 48.0579 46.9671 48.2593 47.0454C48.4608 47.1238 48.6429 47.2446 48.7935 47.3997C48.9441 47.5547 49.0595 47.7404 49.132 47.944C49.2044 48.1476 49.2322 48.3645 49.2134 48.5798C49.2038 48.9283 49.0827 49.2645 48.8676 49.5389C48.6526 49.8133 48.3552 50.0114 48.0191 50.104L47.5005 50.3098C46.9928 50.4321 46.5495 50.7406 46.2585 51.1743C45.9675 51.6079 45.8499 52.135 45.9291 52.6512L45.9448 53.1998ZM46.6519 56.5955C46.7918 56.6004 46.9313 56.5773 47.0621 56.5275C47.1929 56.4776 47.3123 56.402 47.4134 56.3052C47.5145 56.2084 47.5952 56.0923 47.6506 55.9637C47.706 55.8352 47.7352 55.6969 47.7362 55.5569C47.735 55.4171 47.7057 55.2789 47.6502 55.1505C47.5947 55.0221 47.514 54.9062 47.4129 54.8095C47.3119 54.7129 47.1924 54.6374 47.0617 54.5876C46.931 54.5379 46.7917 54.5148 46.6519 54.5198C46.5122 54.5148 46.3728 54.5379 46.2421 54.5876C46.1114 54.6374 45.992 54.7129 45.8909 54.8095C45.7899 54.9062 45.7092 55.0221 45.6537 55.1505C45.5981 55.2789 45.5689 55.4171 45.5676 55.5569C45.5687 55.6969 45.5978 55.8352 45.6532 55.9637C45.7087 56.0923 45.7893 56.2084 45.8904 56.3052C45.9915 56.402 46.111 56.4776 46.2418 56.5275C46.3726 56.5773 46.512 56.6004 46.6519 56.5955Z" fill="white"/>
  <g filter="url(#filter2_d_22590_52036)">
    <path d="M7.92815 69.0703H104.357C105.304 69.0703 106.212 69.4466 106.882 70.1164C107.552 70.7861 107.928 71.6945 107.928 72.6417V90.4989C107.928 91.4461 107.552 92.3545 106.882 93.0243C106.212 93.694 105.304 94.0703 104.357 94.0703H7.92815C6.98095 94.0703 6.07254 93.694 5.40277 93.0243C4.73299 92.3545 4.35672 91.4461 4.35672 90.4989V72.6417C4.35672 71.6945 4.73299 70.7861 5.40277 70.1164C6.07254 69.4466 6.98095 69.0703 7.92815 69.0703V69.0703Z" fill="white"/>
  </g>
  <path d="M53.6426 74.7852H35.0711C33.8877 74.7852 32.9283 75.7445 32.9283 76.928C32.9283 78.1115 33.8877 79.0709 35.0711 79.0709H53.6426C54.826 79.0709 55.7854 78.1115 55.7854 76.928C55.7854 75.7445 54.826 74.7852 53.6426 74.7852Z" fill="#6C96EF"/>
  <path d="M66.4997 84.0703H35.0711C33.8877 84.0703 32.9283 85.0297 32.9283 86.2132C32.9283 87.3966 33.8877 88.356 35.0711 88.356H66.4997C67.6832 88.356 68.6426 87.3966 68.6426 86.2132C68.6426 85.0297 67.6832 84.0703 66.4997 84.0703Z" fill="#C7D7F9"/>
  <path d="M23.6427 71.2129H10.0713C8.09885 71.2129 6.49986 72.8119 6.49986 74.7843V88.3557C6.49986 90.3282 8.09885 91.9272 10.0713 91.9272H23.6427C25.6152 91.9272 27.2141 90.3282 27.2141 88.3557V74.7843C27.2141 72.8119 25.6152 71.2129 23.6427 71.2129Z" fill="#1659E6"/>
  <path d="M15.2297 83.9127H16.6582L16.6739 83.3627C16.6739 82.6398 17.1297 82.4512 17.7739 82.2469C18.4202 82.0631 18.9891 81.6738 19.3945 81.138C19.8 80.6021 20.0199 79.9489 20.0211 79.2769C20.0352 78.8667 19.9641 78.458 19.8121 78.0767C19.6601 77.6953 19.4306 77.3497 19.1381 77.0617C18.8457 76.7736 18.4966 76.5495 18.113 76.4033C17.7294 76.2572 17.3196 76.1922 16.9097 76.2127C16.4764 76.2032 16.0457 76.2819 15.6437 76.4439C15.2418 76.6059 14.8769 76.8478 14.5713 77.1551C14.2656 77.4623 14.0256 77.8285 13.8657 78.2313C13.7058 78.6341 13.6294 79.0651 13.6411 79.4984H15.1182C15.1126 79.2592 15.1548 79.0213 15.2423 78.7986C15.3299 78.5759 15.461 78.3729 15.6279 78.2015C15.7949 78.0302 15.9944 77.8939 16.2148 77.8006C16.4351 77.7073 16.6718 77.659 16.9111 77.6584C17.1269 77.6459 17.3428 77.6799 17.5442 77.7583C17.7456 77.8367 17.9278 77.9575 18.0784 78.1126C18.229 78.2676 18.3444 78.4532 18.4169 78.6569C18.4893 78.8605 18.5171 79.0773 18.4982 79.2927C18.4887 79.6411 18.3675 79.9774 18.1525 80.2518C17.9375 80.5262 17.64 80.7243 17.3039 80.8169L16.7854 81.0227C16.2777 81.145 15.8344 81.4535 15.5434 81.8871C15.2524 82.3208 15.1348 82.8479 15.2139 83.3641L15.2297 83.9127ZM15.9368 87.3084C16.0767 87.3133 16.2162 87.2902 16.347 87.2404C16.4777 87.1905 16.5972 87.1149 16.6983 87.0181C16.7994 86.9213 16.88 86.8052 16.9355 86.6766C16.9909 86.5481 17.02 86.4098 17.0211 86.2698C17.0198 86.1299 16.9906 85.9918 16.9351 85.8634C16.8795 85.735 16.7989 85.6191 16.6978 85.5224C16.5967 85.4258 16.4773 85.3503 16.3466 85.3005C16.2159 85.2508 16.0766 85.2277 15.9368 85.2327C15.797 85.2277 15.6577 85.2508 15.527 85.3005C15.3963 85.3503 15.2769 85.4258 15.1758 85.5224C15.0747 85.6191 14.9941 85.735 14.9385 85.8634C14.883 85.9918 14.8538 86.1299 14.8525 86.2698C14.8536 86.4098 14.8827 86.5481 14.9381 86.6766C14.9936 86.8052 15.0742 86.9213 15.1753 87.0181C15.2764 87.1149 15.3959 87.1905 15.5267 87.2404C15.6575 87.2902 15.7969 87.3133 15.9368 87.3084Z" fill="white"/>
  <defs>
    <filter id="filter0_d_22590_52036" x="0.0710058" y="5.49972" width="112.143" height="33.5714" filterUnits="userSpaceOnUse" color-interpolation-filters="sRGB">
      <feFlood flood-opacity="0" result="BackgroundImageFix"/>
      <feColorMatrix in="SourceAlpha" type="matrix" values="0 0 0 0 0 0 0 0 0 0 0 0 0 0 0 0 0 0 127 0" result="hardAlpha"/>
      <feOffset dy="2.14286"/>
      <feGaussianBlur stdDeviation="2.14286"/>
      <feColorMatrix type="matrix" values="0 0 0 0 0 0 0 0 0 0 0 0 0 0 0 0 0 0 0.161 0"/>
      <feBlend mode="normal" in2="BackgroundImageFix" result="effect1_dropShadow_22590_52036"/>
      <feBlend mode="normal" in="SourceGraphic" in2="effect1_dropShadow_22590_52036" result="shape"/>
    </filter>
    <filter id="filter1_d_22590_52036" x="30.7861" y="36.2146" width="112.143" height="33.5714" filterUnits="userSpaceOnUse" color-interpolation-filters="sRGB">
      <feFlood flood-opacity="0" result="BackgroundImageFix"/>
      <feColorMatrix in="SourceAlpha" type="matrix" values="0 0 0 0 0 0 0 0 0 0 0 0 0 0 0 0 0 0 127 0" result="hardAlpha"/>
      <feOffset dy="2.14286"/>
      <feGaussianBlur stdDeviation="2.14286"/>
      <feColorMatrix type="matrix" values="0 0 0 0 0 0 0 0 0 0 0 0 0 0 0 0 0 0 0.161 0"/>
      <feBlend mode="normal" in2="BackgroundImageFix" result="effect1_dropShadow_22590_52036"/>
      <feBlend mode="normal" in="SourceGraphic" in2="effect1_dropShadow_22590_52036" result="shape"/>
    </filter>
    <filter id="filter2_d_22590_52036" x="0.0710058" y="66.9275" width="112.143" height="33.5714" filterUnits="userSpaceOnUse" color-interpolation-filters="sRGB">
      <feFlood flood-opacity="0" result="BackgroundImageFix"/>
      <feColorMatrix in="SourceAlpha" type="matrix" values="0 0 0 0 0 0 0 0 0 0 0 0 0 0 0 0 0 0 127 0" result="hardAlpha"/>
      <feOffset dy="2.14286"/>
      <feGaussianBlur stdDeviation="2.14286"/>
      <feColorMatrix type="matrix" values="0 0 0 0 0 0 0 0 0 0 0 0 0 0 0 0 0 0 0.161 0"/>
      <feBlend mode="normal" in2="BackgroundImageFix" result="effect1_dropShadow_22590_52036"/>
      <feBlend mode="normal" in="SourceGraphic" in2="effect1_dropShadow_22590_52036" result="shape"/>
    </filter>
    <linearGradient id="paint0_linear_22590_52036" x1="72.9287" y1="0.5" x2="72.9287" y2="100.5" gradientUnits="userSpaceOnUse">
      <stop stop-color="#E8EEFD"/>
      <stop offset="1" stop-color="#C7D7F9"/>
    </linearGradient>
  </defs>
</svg>